# Apartment E.1.5.47 - 3D Model
# Generated from architectural documents
# Total area: 73.97 m²
# Ceiling height: 2.6 m

# Material library (optional)
mtllib apartment.mtl

# Floor
g floor
# Walls
g walls
# Ceiling
g ceiling

v 0.000 0.000 -0.200
v 6.500 0.000 -0.200
v 6.500 14.000 -0.200
v 0.000 14.000 -0.200
v 0.000 0.000 0.000
v 6.500 0.000 0.000
v 6.500 14.000 0.000
v 0.000 14.000 0.000
v 0.000 -0.125 0.000
v 6.500 -0.125 0.000
v 6.500 0.125 0.000
v 0.000 0.125 0.000
v 0.000 -0.125 2.600
v 6.500 -0.125 2.600
v 6.500 0.125 2.600
v 0.000 0.125 2.600
v 6.375 0.000 0.000
v 6.625 0.000 0.000
v 6.625 14.000 0.000
v 6.375 14.000 0.000
v 6.375 0.000 2.600
v 6.625 0.000 2.600
v 6.625 14.000 2.600
v 6.375 14.000 2.600
v 0.000 13.875 0.000
v 6.500 13.875 0.000
v 6.500 14.125 0.000
v 0.000 14.125 0.000
v 0.000 13.875 2.600
v 6.500 13.875 2.600
v 6.500 14.125 2.600
v 0.000 14.125 2.600
v -0.125 0.000 0.000
v 0.125 0.000 0.000
v 0.125 14.000 0.000
v -0.125 14.000 0.000
v -0.125 0.000 2.600
v 0.125 0.000 2.600
v 0.125 14.000 2.600
v -0.125 14.000 2.600
v 0.000 0.000 2.600
v 6.500 0.000 2.600
v 6.500 14.000 2.600
v 0.000 14.000 2.600
v 0.000 0.000 2.800
v 6.500 0.000 2.800
v 6.500 14.000 2.800
v 0.000 14.000 2.800

f 1 2 3 4
f 5 6 7 8
f 1 2 6 5
f 3 4 8 7
f 1 4 8 5
f 2 3 7 6
f 9 10 11 12
f 13 14 15 16
f 9 10 14 13
f 11 12 16 15
f 9 12 16 13
f 10 11 15 14
f 17 18 19 20
f 21 22 23 24
f 17 18 22 21
f 19 20 24 23
f 17 20 24 21
f 18 19 23 22
f 25 26 27 28
f 29 30 31 32
f 25 26 30 29
f 27 28 32 31
f 25 28 32 29
f 26 27 31 30
f 33 34 35 36
f 37 38 39 40
f 33 34 38 37
f 35 36 40 39
f 33 36 40 37
f 34 35 39 38
f 41 42 43 44
f 45 46 47 48
f 41 42 46 45
f 43 44 48 47
f 41 44 48 45
f 42 43 47 46